<svg version="1" xmlns="http://www.w3.org/2000/svg" width="1306.667" height="1306.667" viewBox="0 0 980.000000 980.000000"><path d="M129 174.1c-25.2 2.1-50.8 15.9-69.2 37.4C37.4 237.7 17 283.2 7.5 328.1 2.2 353.5.9 367.7.3 407.7c-.7 48.4 1 73.1 7.3 106.3 5.2 27.9 15.9 65.8 23.2 82.8 10.6 24.5 26.7 41 51.4 52.7 21.7 10.2 32.3 12.5 62.5 13.2 40.7 1 65.1-3.1 114.5-19.3 19.7-6.4 22.8-7.2 22.8-5.5 0 .5-6.6 15.9-14.6 34.2-20.6 47.2-28.4 65.8-28.4 67.6 0 1.8 7.7 1.7 62.3-.8 19.9-.9 25.3-.9 27.2.1 3.1 1.7 15.8 16.2 39 44.5 10.3 12.6 19.1 23.1 19.5 23.3 1.1.4.4 1.9 59.8-132.8 29.7-67.4 42.1-95.2 42.7-95.8.8-.9 9.4 18.1 62.5 138.8 30 68.2 38.9 88.2 40 89.3.4.5 9-9.2 19.1-21.5 26.8-32.6 38.5-45.7 41.5-46.4 1.5-.4 13.5-.2 26.8.5 48.7 2.3 61.6 2.5 61.6 1.1 0-1.7-11.9-29.8-29.4-69.5-9.9-22.4-14.1-33.1-13.2-33.3.7-.2 7.8 1.8 15.7 4.3 55.6 17.6 76.6 21.5 115.4 21.5 24.2 0 34.2-1.3 49.7-6.4 26.9-8.8 49.6-24.8 61.7-43.5 9.8-15.3 23.1-58.2 31.5-101.6 6.5-34.1 8-56 7.3-106.3-.4-30.1-.9-39-2.5-49.7-7.6-48.6-20.6-86.9-41.1-121.3-18.8-31.6-41.2-49.7-71.6-57.9-9.6-2.5-11.1-2.7-35.5-2.7-28.3 0-35.4.8-58.5 6.9-62.7 16.4-149.5 62.9-236 126.3-23.7 17.5-33.9 24.4-39.3 26.9-8.1 3.8-7.5 4.1-49.7-26.9-86.7-63.6-177.7-111.8-241-127.6-20.1-5.1-51.1-7.2-75.5-5.1zm723.5 42.8c12.9 3.4 21.7 8.3 30.5 17 9.6 9.4 16.1 19.3 25.5 38.6 20.6 42.2 30.5 89.7 30.5 146.6 0 32-2.7 59.5-9 90.6-5.2 25.4-15.4 62.1-17.5 63-.7.2-14.9-5.1-31.6-11.8-63.8-25.5-98.3-36.9-143.1-47.3-41.5-9.7-78.5-13.8-136.3-15.1-14.3-.4-26.1-.7-26.2-.9-.1-.1 2.3-5.1 5.3-11.1 3.1-6.3 6.6-15.3 8.1-21 2.4-9 2.6-11.8 2.6-27 0-15.1-.3-18.1-2.5-26.5-6-22.2-18-40.5-36.5-55.1-5.2-4.2-6.1-5.4-5.2-6.5 3.4-4.1 53.5-38.7 81.9-56.6 71.4-45 134.3-72.2 182-78.8 10.7-1.5 32.3-.5 41.5 1.9zm-676.6-.3c53.7 7.9 131.8 45.9 221 107.7 11.9 8.2 25.1 17.7 29.4 21l7.8 6-3.3 2.6c-22.7 17.8-35.6 37.6-40.8 63.1-1.9 8.9-2.1 12.8-1.7 25.5.6 18.7 2.5 26.6 10.7 43.2l5.9 12.3h-15.2c-57.5 0-110.5 6.2-160.2 18.6-40 10-72.4 21-130.5 44.2-15.1 6-28.5 11.3-29.8 11.6-2.9 1-3.9-1.4-10.3-24.8C42.3 486.9 36.7 429.1 42.5 377c4.7-42 12.3-69.9 28.1-102.9 13.3-27.6 25.9-43.4 40.9-51.2 6.8-3.6 14.4-6.4 19.5-7.2 6.7-1.1 35.1-.6 44.9.9zM508 380.9c8.4 2.6 14.9 6.8 22.8 14.4 13 12.6 18 23.3 18.9 39.7 1.2 22.4-8.3 41.5-27 54.2-11.1 7.6-13.9 8.3-33.3 8.3h-17l-8-3.9c-6.2-3.1-9.8-5.8-16.4-12.5-13.4-13.5-18-24.3-18-43.1 0-17.5 4.8-28.7 18-42 8-8.1 17.4-13.7 27.1-16.5 7.3-2.1 24.1-1.3 32.9 1.4zM380.9 540.4c-3.3 3.1-58 31.1-80.3 41-55.4 24.8-93.9 36.1-134.7 39.7-23.5 2-41.8-.2-59.8-7.1-11.8-4.6-11.8-5-.9-9.8 13.1-5.8 49-19.8 70.8-27.7 52.7-19.1 118.3-32.6 173.1-35.4 18.2-.9 32.4-1.3 31.8-.7zM645 542c52.9 4.5 110.9 17.1 159.5 34.7 20.7 7.5 61.5 23.6 72.5 28.6l7.5 3.4-3.5 2.2c-4.5 2.8-19.5 7.5-29 9.2-9.5 1.7-37.5 1.7-50 0-22-3-48.4-9.4-69.8-17.1-24-8.5-61.7-24.8-86.7-37.2-10.4-5.2-42.4-22.7-45-24.6-1.8-1.2 0-1.3 15-.8 9.4.3 22.6 1 29.5 1.6zm-193.1 14.6c-9.4 22.7-68.8 157.4-73 165.7l-2.5 4.8-10.1-12.3c-5.6-6.8-11.5-14-13-16-3.3-4.4-3-4.4-31.7-2.8-9.9.6-18.1.8-18.3.6-.6-.5 36.6-84.9 38-86.3.7-.6 10-5.8 20.7-11.6 22.3-11.9 45.9-25.3 74-42 10.7-6.4 19.6-11.2 19.8-10.8.1.4-1.6 5.2-3.9 10.7zm103.1 6.7c16.2 9.6 38.5 22.3 49.5 28.2 11 6 23.3 12.7 27.4 15l7.3 4 18.9 42.9c10.4 23.6 18.7 43.1 18.5 43.3-.1.2-8.3-.1-18.2-.7-9.8-.5-20.4-1-23.4-1h-5.5l-10.2 12.8c-5.6 7-11.6 14-13.2 15.6l-3 2.8-2.9-5.8c-4-8-19.7-43-46.7-104.4-30.1-68.2-30.8-70-28.7-70 .4 0 14 7.8 30.2 17.3z"/></svg>